<svg version="1.2" xmlns="http://www.w3.org/2000/svg" viewBox="0 0 1640 450" width="1640" height="450"><style>.a{fill:#3d4f57}.b{fill:#eceff1}.c{fill:#d0d5d9}.d{fill:#465a63}.e{fill:#5a7480}.f{fill:#79909b}.g{fill:#547f94}.h{fill:#ffc107}</style><path class="a" d="m32 326h72v-225h-72zm265.2-75l39 75h-79.2l-29.4-66.9h-15.6v66.9h-72v-225h113.4q77.4 0 77.4 78.9 0 54-33.6 71.1zm-68.7-92.4h-16.5v45h16.5q13.2 0 18.9-2.7 6-2.7 6-12.3v-15q0-9.6-6-12.3-5.7-2.7-18.9-2.7zm602.7-57.6v225h-67.8l-54.9-79.8q-1.5-2.1-2.4-6.3-0.9-4.2-1.2-11.1h-1.5v97.2h-72v-225h67.8l54.9 79.8q1.5 2.1 2.4 6.3 0.9 4.2 1.2 11.1h1.5v-97.2zm165.3 225h-129.3v-225h116.7q32.4 0 46.2 12.6 13.8 12.6 13.8 36.6 0 24.3-8.7 37.5-8.7 12.9-23.7 17.1v2.1q43.5 7.5 43.5 59.4 0 27-14.4 43.5-14.1 16.2-44.1 16.2zm-29.1-89.7h-28.2v36.9h27.6q15.3 0 15.3-18.6 0-18.3-14.7-18.3zm-5.4-86.1h-22.8v33.6h22.2q13.8 0 13.8-16.8 0-16.8-13.2-16.8zm171.9 175.8l8.1-35.7h59.4l8.4 35.7h75.9l-58.2-225h-111.3l-58.2 225zm36-156h3.9l14.4 63h-33zm273.6 156v-57.6h-72v-167.4h-72v225zm163.8 0v-57.6h-72v-167.4h-72v225z"/><path class="b" d="m418.2 179.8c-7.2 0-13.9-4.3-16.7-11.2l-42.8-106.3c-2.3-5.5-3.5-11.4-3.5-17.3 0-24.8 20.2-45 45-45h161.8c24.8 0 45 20.2 45 45 0 5.9-1.2 11.8-3.5 17.3l-42.8 106.3c-3.7 9.2-14.2 13.6-23.4 9.9-9.2-3.7-13.7-14.2-10-23.4l42.9-106.3c0-0.1 0.1-0.2 0.1-0.4 0.5-1.1 0.7-2.2 0.7-3.4 0-5-4-9-9-9h-161.8c-5 0-9 4-9 9 0 1.2 0.2 2.4 0.7 3.4 0.1 0.1 0.1 0.2 0.1 0.4l42.9 106.3c3.7 9.2-0.8 19.7-10 23.4-2.2 0.9-4.5 1.3-6.7 1.3z"/><path class="c" d="m586.9 62.4c1.5-3.7 2.3-7.6 2.3-11.9 0-16.7-13.6-30.3-30.3-30.3h-155.6c-16.8 0-30.4 13.6-30.4 30.3 0 4.3 0.8 8.2 2.3 11.9l47.1 116.8c0.8-0.2 1.7-0.4 2.5-0.8 9.2-3.7 13.7-14.1 10-23.4l-42.8-106.2c0-0.1-0.1-0.2-0.1-0.4-0.5-1.1-0.7-2.2-0.7-3.4 0-5 4-9 9-9h161.8c5 0 9 4 9 9 0 1.2-0.2 2.4-0.7 3.4-0.1 0.1-0.1 0.2-0.1 0.4l-42.9 106.3c-3.7 9.2 0.8 19.7 10 23.4 0.8 0.3 1.7 0.6 2.5 0.8z"/><path class="d" d="m576.8 128.5l19.2-47.5h-38.8l-10.2 25.7c-19.7-10.6-42-16.7-65.9-16.7-23.8 0-46.2 6-65.8 16.7l-10.3-25.8h-38.8l19.2 47.6c-26.1 25.1-42.4 60.4-42.4 99.5 0 37.1 14.7 70.8 38.5 95.7h199.2c23.8-24.8 38.5-58.5 38.5-95.7 0-39.1-16.3-74.3-42.4-99.5z"/><path class="e" d="m496.2 91.9c-5-0.6-10-0.9-15.1-0.9-75.9 0-137.5 61.6-137.5 137.5 0 36.9 14.6 70.5 38.4 95.2h30.3c-23.7-24.7-38.3-58.3-38.3-95.2 0-70.8 53.5-129 122.2-136.6z"/><path class="a" d="m466.6 91.9c5-0.6 10-0.9 15.1-0.9 75.9 0 137.5 61.6 137.5 137.5 0 36.9-14.6 70.5-38.3 95.2h-30.4c23.7-24.7 38.3-58.3 38.3-95.2 0-70.8-53.4-129-122.2-136.6z"/><path class="a" d="m557.2 80.9l-10.2 25.7c-19.7-10.6-42-16.7-65.9-16.7-23.8 0-46.2 6-65.8 16.7l-10.3-25.7h-22.2l15.3 38.1c23.1-17.5 51.8-28 83-28h2c0.8 0 1.6 0 2.4 0.1 29.5 0.8 56.8 10.9 78.8 27.5l15.1-37.7z"/><path class="f" d="m412.9 226.3c0 18.1 7.2 35.4 20 48.2 12.8 12.8 30.1 20 48.2 20 18.1 0 35.4-7.2 48.2-20 12.8-12.8 20-30.1 20-48.2 0-18.1-7.2-35.4-20-48.2-12.8-12.8-30.1-20-48.2-20-18.1 0-35.4 7.2-48.2 20-12.8 12.8-20 30.1-20 48.2z"/><path class="g" d="m481.1 260.4c-31.8 0-58.5-21.7-66-51.1-1.4 5.4-2.2 11.2-2.2 17 0 37.7 30.5 68.2 68.2 68.2 37.7 0 68.2-30.5 68.2-68.2q0-8.9-2.2-17c-7.5 29.3-34.2 51.1-66 51.1z"/><path class="h" d="m479 179.6c-0.5 0.3-1.1 0.8-1.5 1.2-0.6 0.6-1.5 2.8-5.7 12.5-2.7 6.4-5 11.7-5.1 11.7-0.1 0-5.9 0.6-12.8 1.2-10.6 1-12.8 1.2-13.5 1.5-0.4 0.2-1 0.6-1.3 0.9-0.3 0.3-0.7 0.9-0.9 1.3-0.2 0.4-0.4 1.1-0.4 1.8q-0.1 1.2 0.2 1.9c0.1 0.4 0.4 0.9 0.6 1.2 0.2 0.2 4.7 4.2 9.9 8.8 5.2 4.6 9.5 8.4 9.5 8.5 0 0.1-1.3 5.8-2.8 12.5-2.3 10.2-2.8 12.5-2.7 13.3 0 0.5 0.2 1.2 0.4 1.6 0.2 0.4 0.6 0.9 1 1.3 0.3 0.3 0.9 0.7 1.2 0.9 0.5 0.2 1 0.3 2 0.3 1 0 1.5-0.1 2-0.3 0.4-0.2 5.4-3.3 11.3-6.8l10.5-6.3c16.5 9.8 21.5 12.9 21.9 13.1 0.5 0.2 1 0.3 2 0.3 1 0 1.5-0.1 2-0.3 0.3-0.2 0.8-0.6 1.2-0.9 0.4-0.4 0.8-0.9 1-1.3 0.2-0.4 0.4-1.1 0.4-1.6 0.1-0.8-0.4-3.1-2.7-13.3-1.5-6.7-2.8-12.4-2.8-12.5 0-0.1 4-3.7 8.9-8 4.9-4.3 9.3-8.1 9.7-8.6 0.5-0.4 1-1.1 1.2-1.6 0.3-0.6 0.4-1.1 0.4-1.9 0-0.6-0.1-1.4-0.2-1.7-0.1-0.2-0.4-0.8-0.7-1.2-0.3-0.5-0.8-0.9-1.5-1.2-1-0.5-1.1-0.5-13.7-1.7-6.9-0.6-12.7-1.2-12.8-1.2-0.1 0-2.4-5.3-5.1-11.7-4.2-9.8-5.1-11.9-5.7-12.5-0.4-0.4-1-0.9-1.5-1.2-0.6-0.2-1.2-0.4-2-0.4-0.7 0-1.3 0.2-1.9 0.4z"/><path  d="m28.8 343h34.6q17.4 0 29.7 6.4 12.4 6.3 19 18.2 6.8 11.8 6.8 28.2 0 16.2-6.8 27.9-6.6 11.7-19 18-12.3 6.3-29.7 6.3h-34.7zm12.1 94.5h22.6q21.4 0 32.4-10.9 11-11 11-30.8 0-19.9-11-31-11-11.3-32.4-11.3h-22.6zm168.3 11.6q-11.2 0-20.8-4-9.4-3.8-16.6-10.9-7.1-7.2-11.1-16.9-3.9-9.9-3.9-21.8 0-11.9 3.9-21.6 4-9.9 11.1-17 7.2-7.1 16.6-11 9.6-4 20.8-4 10.9 0 20.3 4 9.7 3.9 16.7 11 7 7.1 11 17 4 9.7 4 21.6 0 11.9-4 21.8-4 9.7-11 16.9-7 7.1-16.7 10.9-9.4 4-20.4 4zm0-10.5q11.3 0 20.3-5.3 9-5.2 14.2-14.9 5.3-9.7 5.3-22.9 0-13.4-5.3-22.9-5.2-9.8-14.2-14.9-9-5.3-20.3-5.3-11.4 0-20.5 5.3-9 5.1-14.3 14.9-5.2 9.5-5.2 22.9 0 13.2 5.2 22.9 5.3 9.7 14.3 14.9 9.1 5.3 20.5 5.3zm89.7-43.1q0-11.9 3.9-21.6 3.9-9.9 11-17 7.2-7.1 16.5-11 9.4-4 20.5-4 16.2 0 28.4 7.5 12.3 7.5 18.6 21.4l-9.8 3.6q-3.4-7.4-9.1-12-5.7-4.8-12.9-7.3-7.2-2.3-15.2-2.3-11.2 0-20.2 5.1-9 5-14.3 14.7-5.1 9.5-5.1 22.9 0 13.2 5.1 22.8 5.3 9.6 14.3 14.8 9 5.2 20.2 5.2 8.1 0 15.5-2.6 7.3-2.6 13.2-7.9 6-5.4 9.6-13.5l9.7 3.6q-6.4 15.4-18.9 23.4-12.4 7.8-29.1 7.8-11.1 0-20.5-4-9.3-3.8-16.5-11-7.1-7.2-11-17-3.9-9.9-3.9-21.6zm145.4 13.6v-66.1h12v66.3q0 10.3 3.7 16.8 3.8 6.5 10.1 9.5 6.4 3 14.5 3 8 0 14.3-3 6.3-3 10-9.5 3.8-6.5 3.8-16.8v-66.3h12v66.1q0 10.4-3.3 17.9-3.2 7.5-8.9 12.5-5.7 4.8-12.9 7.1-7.2 2.5-15.1 2.5-10.8 0-20-4.2-9.1-4.4-14.7-13.3-5.5-8.8-5.5-22.5zm142-42.4v81.3h-12v-105h13.2l39 88.5 38.9-88.5h13v105h-12v-81.3l-35.7 81.3h-8.5zm211.3-23.7v10.5h-56.8v35.9h42.7v10.5h-42.7v37.6h56.8v10.5h-68.8v-105zm115.6 0h12v105h-12.1l-56.1-85.8v85.8h-12v-105h12.1l56.1 85.7zm56.1 10.5v-10.5h78.8v10.5h-33.3v94.5h-12v-94.5zm189.1 94.5l-34.3-94.5h-5l-34.6 94.5h-12.2l38.4-105h21.6l38.3 105zm-67.4-27.7v-10.5h61.2v10.5zm103.8-66.8v-10.6h78.8v10.5h-33.3v94.5h-12v-94.5zm122.7 94.5v-105h12v105zm108.4 1.1q-11.1 0-20.7-3.9-9.4-3.9-16.6-11-7-7.2-11.1-16.9-3.9-9.9-3.9-21.8 0-11.8 3.9-21.6 4.1-9.9 11.1-16.9 7.2-7.2 16.6-11.1 9.6-3.9 20.7-3.9 11 0 20.4 3.9 9.6 3.9 16.7 11.1 7.1 7 10.9 16.9 4.1 9.8 4.1 21.6 0 11.9-4.1 21.8-3.8 9.7-10.9 16.9-7.1 7.1-16.7 11-9.4 3.9-20.4 3.9zm0-10.5q11.3 0 20.3-5.2 9-5.3 14.2-14.9 5.3-9.8 5.3-23 0-13.3-5.3-22.9-5.2-9.7-14.2-14.9-9-5.2-20.3-5.2-11.3 0-20.5 5.2-9 5.2-14.3 14.9-5.2 9.6-5.2 22.9 0 13.2 5.2 23 5.3 9.6 14.3 14.9 9.2 5.2 20.5 5.2zm164.3-95.5l12-0.1v105h-12.2l-56.1-85.8v85.8h-12v-105h12.2l56.1 85.7z"/></svg>